HIERARCHY
ROOT Hips
{
  OFFSET 0 0 0
  CHANNELS 6 Xposition Yposition Zposition Zrotation Xrotation Yrotation
  JOINT LeftUpLeg
  {
    OFFSET 4.06525 -3.90732 0.41711
    CHANNELS 3 Zrotation Xrotation Yrotation
    JOINT LeftLeg
    {
      OFFSET 0.00023 -18.4821 0.00367
      CHANNELS 3 Zrotation Xrotation Yrotation
      JOINT LeftFoot
      {
        OFFSET -0.00172 -15.2898 -0.02629
        CHANNELS 3 Zrotation Xrotation Yrotation
        JOINT LeftToeBase
        {
          OFFSET 0.36743 -3.19131 5.54287
          CHANNELS 3 Zrotation Xrotation Yrotation
          JOINT LeftToeBase2
          {
            OFFSET 0.08751 0.04849 1.36758
            CHANNELS 3 Zrotation Xrotation Yrotation
            JOINT LeftToeBase3
            {
              OFFSET 0.07484 0.06785 1.16707
            }
          }
        }
      }
    }
  }
  JOINT RightUpLeg
  {
    OFFSET -4.06526 -3.90731 0.41712
    CHANNELS 3 Zrotation Xrotation Yrotation
    JOINT RightLeg
    {
      OFFSET -0.00029 -18.4821 0.0044
      CHANNELS 3 Zrotation Xrotation Yrotation
      JOINT RightFoot
      {
        OFFSET 0.0016 -15.2898 -0.02569
        CHANNELS 3 Zrotation Xrotation Yrotation
        JOINT RightToeBase
        {
          OFFSET -0.3542 -3.19109 5.54386
          CHANNELS 3 Zrotation Xrotation Yrotation
          JOINT RightToeBase2
          {
            OFFSET -0.08424 0.04854 1.36778
            CHANNELS 3 Zrotation Xrotation Yrotation
            JOINT RightToeBase3
            {
              OFFSET -0.07205 0.0679 1.16725
            }
          }
        }
      }
    }
  }
  JOINT Spine
  {
    OFFSET 1e-005 4.46517 -0.10224
    CHANNELS 3 Zrotation Xrotation Yrotation
    JOINT Spine1
    {
      OFFSET 1e-005 4.46212 -0.1824
      CHANNELS 3 Zrotation Xrotation Yrotation
      JOINT Spine2
      {
        OFFSET 0 4.37937 -0.881
        CHANNELS 3 Zrotation Xrotation Yrotation
        JOINT Spine3
        {
          OFFSET 1e-005 4.68286 0.21414
          CHANNELS 3 Zrotation Xrotation Yrotation
          JOINT Neck
          {
            OFFSET 0 1.76964 0.82454
            CHANNELS 3 Zrotation Xrotation Yrotation
            JOINT Head
            {
              OFFSET 0 1.6961 0.93145
              CHANNELS 3 Zrotation Xrotation Yrotation
              JOINT Head_End
              {
                OFFSET 1e-005 7.8375 1.52603
              }
            }
          }
          JOINT LeftShoulder
          {
            OFFSET 1.19381 -0.75881 -0.02768
            CHANNELS 3 Zrotation Xrotation Yrotation
            JOINT LeftArm
            {
              OFFSET 5.18779 -2e-005 1e-005
              CHANNELS 3 Zrotation Xrotation Yrotation
              JOINT LeftForeArm
              {
                OFFSET 12.7364 -4e-005 2e-005
                CHANNELS 3 Zrotation Xrotation Yrotation
                JOINT LeftHand
                {
                  OFFSET 9.21452 -2e-005 1e-005
                  CHANNELS 3 Zrotation Xrotation Yrotation
                }
              }
            }
          }
          JOINT RightShoulder
          {
            OFFSET -1.19381 -0.75881 -0.02767
            CHANNELS 3 Zrotation Xrotation Yrotation
            JOINT RightArm
            {
              OFFSET -5.18779 1e-005 -1e-005
              CHANNELS 3 Zrotation Xrotation Yrotation
              JOINT RightForeArm
              {
                OFFSET -12.7364 3e-005 -2e-005
                CHANNELS 3 Zrotation Xrotation Yrotation
                JOINT RightHand
                {
                  OFFSET -9.21452 2e-005 -1e-005
                  CHANNELS 3 Zrotation Xrotation Yrotation
                }
              }
            }
          }
        }
      }
    }
  }
}
MOTION
Frames: 7
Frame Time: 	0.0166667
1.5502 40.9859 4.29934 -1.8272 3.95547 0.167876 -0.753285 5.0381 3.20192  -0.000283829 13.8824 0.0154157  3.76816 -21.8915 5.65696  6.99662e-012 -1.7531e-011 9.24301e-011  -0 0 -0   -3.1615 -23.8044 -3.97034  0.000948644 64.753 -0.046194  3.11691 -11.0497 -10.3818  -3.76697e-014 -1.29381e-011 1.02101e-010  -0 0 -0   1.97817 1.37309 -1.01752  0.491457 2.5018 -0.484077  0.195031 3.09103 -0.433243  -0.688971 6.32098 -0.813157  3.46471 -5.96003 -4.19534  -2.60343 -21.7799 -4.1471   -2.78231 2.5427 -10.8995  -61.2209 26.652 -16.5026  -7.20989e-011 -1.14896e-010 -25.4966  -2.38074 -4.91398 1.35369  7.11407 2.87875 8.85897  64.4965 17.3866 3.09798  -1.3363e-011 1.66301e-011 22.719  7.02663 6.83283 -4.64817 
1.58379 40.9544 4.63097 -2.08412 3.87258 0.580311 -0.469067 5.85732 3.15245  -0.0026469 13.3898 0.0261764  3.74133 -21.9997 5.33238  6.99662e-012 -1.7531e-011 9.24301e-011  -0 0 -0   -3.12473 -25.3132 -4.80637  -0.000272553 64.94 -0.05091  2.82707 -11.4376 -11.1688  -3.76697e-014 -1.29381e-011 1.02101e-010  -0 0 -0   2.09175 1.51957 -1.16794  0.534078 2.55171 -0.566833  0.223419 3.10301 -0.509373  -0.717161 6.28721 -0.956081  3.56436 -6.05148 -4.21771  -2.58889 -21.938 -4.16397   -2.62799 2.52982 -10.9637  -61.0996 26.7871 -16.6945  -7.4087e-011 -1.13926e-010 -26.4922  -2.70544 -4.33186 1.28281  7.29542 2.86919 8.54306  64.7363 16.9723 2.81209  -1.32988e-011 1.66568e-011 22.4982  7.31641 6.84596 -4.8204 
1.611 40.9201 4.98355 -2.35888 3.8427 0.963869 -0.159466 6.67372 3.05905  -0.00468281 12.8439 0.0364275  3.72709 -22.0783 5.09172  6.99662e-012 -1.7531e-011 9.24301e-011  -0 0 -0   -3.05889 -26.6281 -5.62489  0.000713814 64.0194 -0.0551282  2.58692 -11.9001 -11.793  -3.76697e-014 -1.29381e-011 1.02101e-010  -0 0 -0   2.2203 1.67573 -1.29046  0.586968 2.59991 -0.634047  0.259287 3.10357 -0.568401  -0.725869 6.21921 -1.07085  3.59144 -6.19653 -4.25871  -2.545 -22.1446 -4.20513   -2.50275 2.51856 -11.0074  -61.0204 26.9058 -16.8775  -7.60306e-011 -1.12937e-010 -27.4739  -2.96434 -3.75218 1.2503  7.40755 2.85949 8.24434  65.0521 16.5331 2.44416  -1.32431e-011 1.66798e-011 22.3067  7.55811 6.81042 -5.00343 
1.63067 40.8764 5.35626 -2.62689 3.86163 1.19727 0.135662 7.521 3.04021  -0.00610262 12.2139 0.0449869  3.73498 -22.1474 4.93751  6.99662e-012 -1.7531e-011 9.24301e-011  -0 0 -0   -2.90668 -27.7905 -6.21924  -0.000516868 62.0075 -0.0570574  2.42716 -12.2742 -12.1327  -3.76697e-014 -1.29381e-011 1.02101e-010  -0 0 -0   2.31895 1.84512 -1.37059  0.642695 2.65242 -0.678941  0.304704 3.10411 -0.604455  -0.683858 6.14286 -1.14609  3.58185 -6.43106 -4.27376  -2.47898 -22.4323 -4.22036   -2.40221 2.49684 -10.9479  -61.0169 26.9711 -17.0655  -7.79701e-011 -1.11907e-010 -28.4624  -3.18793 -3.14864 1.29325  7.39801 2.85365 8.05882  65.4086 16.1903 2.04497  -1.31894e-011 1.67017e-011 22.1223  7.66754 6.58844 -5.14811 
1.64161 40.8268 5.75121 -2.88528 3.92592 1.35401 0.418426 8.39057 3.01335  -0.00665248 11.5156 0.0504286  3.75397 -22.1812 4.87662  6.99662e-012 -1.7531e-011 9.24301e-011  -0 0 -0   -2.68925 -28.7782 -6.6261  -0.003404 59.0156 -0.0573489  2.39439 -12.4588 -12.2794  -3.76697e-014 -1.29381e-011 1.02101e-010  -0 0 -0   2.39571 2.01022 -1.42301  0.69586 2.70355 -0.707917  0.351556 3.10525 -0.624714  -0.618676 6.06934 -1.19286  3.59397 -6.73048 -4.27976  -2.42869 -22.778 -4.23649   -2.28918 2.46718 -10.8357  -61.0648 27.0014 -17.2417  -7.99447e-011 -1.10814e-010 -29.4783  -3.36968 -2.59487 1.39563  7.33751 2.85309 7.92886  65.7866 15.92 1.61764  -1.31414e-011 1.67211e-011 21.9578  7.68335 6.27079 -5.25505 
1.64277 40.7744 6.17035 -3.12541 4.03567 1.46455 0.681106 9.2858 2.92383  -0.00615796 10.7378 0.0513798  3.77686 -22.1428 4.93187  6.99662e-012 -1.7531e-011 9.24301e-011  -0 0 -0   -2.40647 -29.573 -6.81757  -0.0067088 55.0784 -0.0575143  2.52958 -12.2793 -12.2587  -3.76697e-014 -1.29381e-011 1.02101e-010  -0 0 -0   2.44817 2.15417 -1.45552  0.739978 2.74879 -0.724148  0.392551 3.10819 -0.63319  -0.549213 6.01603 -1.21597  3.69074 -7.08377 -4.2813  -2.42847 -23.1694 -4.25151   -2.12551 2.42812 -10.6913  -61.158 26.9986 -17.3904  -8.20283e-011 -1.0961e-010 -30.5614  -3.5001 -2.16296 1.57719  7.26776 2.85905 7.82458  66.1701 15.73 1.17197  -1.31026e-011 1.67367e-011 21.8248  7.60621 5.89217 -5.30109 
1.63296 40.7138 6.61247 -3.33749 4.17597 1.53525 0.921696 10.2082 2.80445  -0.00507696 9.91811 0.0493021  3.79978 -22.0754 5.05668  6.99662e-012 -1.7531e-011 9.24301e-011  -0 0 -0   -2.07436 -30.2026 -6.77592  -0.00902875 50.4342 -0.059378  2.86939 -11.7802 -12.148  -3.76697e-014 -1.29381e-011 1.02101e-010  -0 0 -0   2.46077 2.28035 -1.47193  0.770527 2.79153 -0.730567  0.426876 3.11884 -0.633523  -0.470431 5.99113 -1.22279  3.89459 -7.4861 -4.27068  -2.48058 -23.6077 -4.26101   -1.90958 2.37942 -10.522  -61.2751 26.9744 -17.5218  -8.41472e-011 -1.08331e-010 -31.6755  -3.61853 -1.83127 1.76772  7.22328 2.876 7.75865  66.5142 15.6468 0.738745  -1.30676e-011 1.67507e-011 21.7049  7.4659 5.48296 -5.30831 
